<svg xmlns="http://www.w3.org/2000/svg" width="206" height="231" viewBox="0 0 206 231">
  <path fill="#FFC131" d="M143.107 94.928c0 11.38-9.224 20.604-20.604 20.604-11.38 0-20.604-9.224-20.604-20.604 0-11.38 9.224-20.604 20.604-20.604 11.38 0 20.604 9.224 20.604 20.604ZM122.503 135.936c-11.38 0-20.604 9.224-20.604 20.604 0 11.38 9.224 20.604 20.604 20.604 11.38 0 20.604-9.224 20.604-20.604 0-11.38-9.224-20.604-20.604-20.604Z"/>
  <path fill="#FFC131" fill-rule="evenodd" d="M102.993 22.277c-43.238 0-78.273 35.035-78.273 78.273 0 43.238 35.035 78.273 78.273 78.273 43.238 0 78.273-35.035 78.273-78.273 0-43.238-35.035-78.273-78.273-78.273ZM0 100.55C0 44.968 44.968 0 100.55 0c55.582 0 100.55 44.968 100.55 100.55 0 55.582-44.968 100.55-100.55 100.55C44.968 201.1 0 156.132 0 100.55Z" clip-rule="evenodd"/>
  <path fill="#FFC131" fill-rule="evenodd" d="M100.55 180.827c-43.238 0-78.273-35.035-78.273-78.273 0-43.238 35.035-78.273 78.273-78.273 43.238 0 78.273 35.035 78.273 78.273 0 43.238-35.035 78.273-78.273 78.273ZM100.55 201.1C44.968 201.1 0 156.132 0 100.55 0 44.968 44.968 0 100.55 0c55.582 0 100.55 44.968 100.55 100.55 0 55.582-44.968 100.55-100.55 100.55Z" clip-rule="evenodd" transform="translate(5.1 25.4) scale(.94)"/>
</svg>